<svg xmlns="http://www.w3.org/2000/svg"  viewBox="0 0 64 64" width="64px" height="64px"><path fill="#ced9ed" d="M59,30v8c0,2.21-1.79,4-4,4h-4l-0.23-0.1C51.62,40.2,52,38.31,52,37c0-0.81-0.14-1.62-0.4-2.43	c-0.16-0.52-0.37-1.05-0.61-1.57H51v-9c0-2.74-0.58-5.36-1.64-7.71L50,16c3.95,0.49,6,3.92,6,8v4h1c0.34,0,0.66,0.08,0.94,0.23	C58.57,28.57,59,29.24,59,30z"/><path fill="#e2e9f7" d="M59,30v5.66L52.65,42H51l-0.23-0.1C51.62,40.2,52,38.31,52,37L59,30z"/><path fill="#e2e9f7" d="M57.94,28.23l-6.34,6.34c-0.16-0.52-0.37-1.05-0.61-1.57H51v-0.65l5-5.01V28h1 C57.34,28,57.66,28.08,57.94,28.23z"/><path fill="#fff8ee" d="M50.99,33c-0.77-1.67-1.88-3.33-2.99-5c-2-3-2-8-2-10c-5,3-11,3-14,3s-9,0-14-3c0,2,0,7-2,10	c-1.11,1.67-2.22,3.33-2.99,5C12.39,34.33,12,35.67,12,37c0,1.31,0.38,3.2,1.23,4.9C14.32,44.1,16.19,46,19,46	c3.78,0,4.7,4.57,4.93,7.66C24,54.67,24,55.51,24,56c0,2,8,2,8,2s8,0,8-2c0-0.49,0-1.33,0.07-2.34C40.3,50.57,41.22,46,45,46	c2.81,0,4.68-1.9,5.77-4.1C51.62,40.2,52,38.31,52,37C52,35.67,51.61,34.33,50.99,33z M29.07,44.09l2-4.46	C31.22,39.25,31.59,39,32,39s0.78,0.25,0.93,0.63l2,4.46c0.04,0.1,0.06,0.21,0.06,0.31C35,44.43,35,44.46,35,44.5	c0,0.04,0,0.07-0.01,0.1c-0.05,0.23-0.25,0.4-0.49,0.4H34c-0.63-0.32-1.32-0.47-2-0.47s-1.37,0.15-2,0.47h-0.5	c-0.24,0-0.44-0.17-0.49-0.4C29,44.57,29,44.54,29,44.5c0-0.04,0-0.07,0.01-0.1C29.01,44.3,29.03,44.19,29.07,44.09z M23,40	c-2,0-6-0.91-6-5.45C17,30,21,30,22,30c3,0,7,1.82,7,6.36C29,39.09,25,40,23,40z M41,40c-2,0-6-0.91-6-3.64c0-4.54,4-6.36,7-6.36	c1,0,5,0,5,4.55C47,39.09,43,40,41,40z"/><path fill="#acb7d0" d="M51,24v9h-0.01c-0.77-1.67-1.88-3.33-2.99-5c-2-3-2-8-2-10c-5,3-11,3-14,3s-9,0-14-3c0,2,0,7-2,10	c-1.11,1.67-2.22,3.33-2.99,5H13v-9c0-2.74,0.58-5.36,1.64-7.71c0.59-1.32,1.32-2.56,2.18-3.69C20.27,7.99,25.79,5,32,5	c6.2,0,11.72,2.98,15.18,7.59c0.86,1.14,1.59,2.38,2.18,3.7C50.42,18.64,51,21.26,51,24z"/><path fill="#b5c4e0" d="M47.18,12.59c-1.32,1.21-3.37,1.22-4.71-0.01C39.6,9.95,35.89,8.5,32,8.5s-7.61,1.45-10.47,4.08	c-0.67,0.62-1.52,0.92-2.37,0.92c-0.84,0-1.68-0.3-2.34-0.9C20.27,7.99,25.79,5,32,5C38.2,5,43.72,7.98,47.18,12.59z"/><path fill="#8d6c9f" d="M42,30c1,0,5,0,5,4.55c0,4.54-4,5.45-6,5.45s-6-0.91-6-3.64C35,31.82,39,30,42,30z"/><path fill="#8d6c9f" d="M34.99,44.4C35,44.43,35,44.46,35,44.5s0,0.07-0.01,0.1c-0.05,0.23-0.25,0.4-0.49,0.4H34	c-0.63-0.32-1.32-0.47-2-0.47s-1.37,0.15-2,0.47h-0.5c-0.24,0-0.44-0.17-0.49-0.4C29,44.57,29,44.54,29,44.5s0-0.07,0.01-0.1	c0-0.1,0.02-0.21,0.06-0.31l2-4.46C31.22,39.25,31.59,39,32,39s0.78,0.25,0.93,0.63l2,4.46C34.97,44.19,34.99,44.3,34.99,44.4z"/><path fill="#8d6c9f" d="M29,36.36c0,2.73-4,3.64-6,3.64s-6-0.91-6-5.45C17,30,21,30,22,30C25,30,29,31.82,29,36.36z"/><path fill="#ced9ed" d="M12.06,37.98c0.14,1.18,0.51,2.61,1.17,3.92L13,42H9c-0.3,0-0.59-0.03-0.86-0.1	c-1.41-0.3-2.53-1.35-2.95-2.7C5.06,38.82,5,38.42,5,38v-8c0-1.1,0.9-2,2-2h1v-4c0-4.08,2.05-7.51,6-8l0.64,0.29	C13.58,18.64,13,21.26,13,24v9h0.01C12.39,34.33,12,35.67,12,37C12,37.3,12.02,37.63,12.06,37.98z"/><path fill="#faefde" d="M40.07,53.66C40,54.67,40,55.51,40,56c0,2-8,2-8,2s-8,0-8-2c0-0.49,0-1.33-0.07-2.34	c1.07-0.84,2.48-1.24,3.93-0.98C29.36,52.94,31.36,53,32,53s2.64-0.06,4.14-0.32C37.58,52.42,39,52.82,40.07,53.66z"/><path fill="#e2e9f7" d="M12,37c0,0.3,0.02,0.63,0.06,0.98L8.14,41.9c-1.41-0.3-2.53-1.35-2.95-2.7L13,31.39V33h0.01 C12.39,34.33,12,35.67,12,37z"/><polygon fill="#e2e9f7" points="13,25.73 13,28.55 5,36.55 5,33.73"/><path fill="#8d6c9f" d="M32,59c-4.106,0-9-0.521-9-3c0-4.106-0.694-9-4-9c-2.812,0-5.179-1.654-6.666-4.656	C11.351,40.378,11,38.294,11,37c0-1.382,0.361-2.829,1.104-4.422c0.786-1.704,1.91-3.396,2.998-5.032l0.065-0.099	C17,24.697,17,19.832,17,18c0-0.36,0.194-0.693,0.507-0.87c0.313-0.178,0.699-0.173,1.007,0.013C23.277,20,29.168,20,32,20	s8.723,0,13.485-2.857c0.309-0.186,0.694-0.19,1.007-0.013C46.806,17.307,47,17.64,47,18c0,1.832,0,6.697,1.832,9.445l0.066,0.1	c1.087,1.636,2.212,3.327,2.999,5.034C52.639,34.172,53,35.618,53,37c0,1.294-0.351,3.378-1.335,5.347	C50.179,45.346,47.812,47,45,47c-3.306,0-4,4.894-4,9C41,58.479,36.106,59,32,59z M25,55.912C25.548,56.486,28.822,57,32,57	c3.179-0.001,6.453-0.515,7-1.088C39.021,46.896,42.271,45,45,45c2.578,0,4.073-1.927,4.874-3.544C50.706,39.793,51,38.017,51,37	c0-1.084-0.3-2.254-0.916-3.578c-0.001-0.001-0.001-0.002-0.002-0.003c-0.722-1.567-1.755-3.121-2.849-4.767l-0.066-0.099	c-1.725-2.588-2.077-6.36-2.148-8.893C40.131,22,34.729,22,32,22s-8.131,0-13.019-2.339c-0.071,2.533-0.423,6.305-2.149,8.894	l-0.065,0.098c-1.094,1.646-2.127,3.2-2.849,4.767C13.3,34.746,13,35.916,13,37c0,1.017,0.294,2.793,1.125,4.453	C14.927,43.073,16.422,45,19,45C21.729,45,24.979,46.896,25,55.912z"/><path fill="#8d6c9f" d="M51,34c-0.552,0-1-0.448-1-1v-9c0-2.561-0.522-5.016-1.552-7.299C45.564,10.198,39.108,6,32,6	s-13.564,4.198-16.446,10.695C14.522,18.984,14,21.439,14,24v9c0,0.552-0.448,1-1,1s-1-0.448-1-1v-9	c0-2.846,0.582-5.578,1.729-8.121C16.928,8.665,24.102,4,32,4s15.072,4.665,18.274,11.885C51.418,18.422,52,21.154,52,24v9	C52,33.552,51.552,34,51,34z"/><path fill="#8d6c9f" d="M13,43H9c-2.757,0-5-2.243-5-5v-8c0-1.654,1.346-3,3-3v-3c0-4.944,2.699-8.474,6.877-8.992	c0.542-0.069,1.048,0.321,1.115,0.869c0.068,0.548-0.321,1.047-0.869,1.115C10.346,17.461,9,20.919,9,24v4c0,0.552-0.448,1-1,1H7	c-0.551,0-1,0.449-1,1v8c0,1.654,1.346,3,3,3h4c0.552,0,1,0.448,1,1S13.552,43,13,43z"/><path fill="#8d6c9f" d="M55,43h-4c-0.552,0-1-0.448-1-1s0.448-1,1-1h4c1.654,0,3-1.346,3-3v-8c0-0.551-0.449-1-1-1h-1	c-0.552,0-1-0.448-1-1v-4c0-3.081-1.346-6.539-5.123-7.008c-0.548-0.068-0.938-0.567-0.869-1.115	c0.067-0.549,0.576-0.939,1.115-0.869C54.301,15.526,57,19.056,57,24v3c1.654,0,3,1.346,3,3v8C60,40.757,57.757,43,55,43z"/><g><path fill="#8d6c9f" d="M27.388,54.673c-0.046,0-0.093-0.003-0.14-0.01c-0.547-0.076-0.928-0.582-0.852-1.129l0.277-1.98 c0.076-0.548,0.579-0.936,1.129-0.852c0.547,0.076,0.928,0.582,0.852,1.129l-0.277,1.98 C28.307,54.312,27.878,54.673,27.388,54.673z"/><path fill="#8d6c9f" d="M32,55c-0.552,0-1-0.448-1-1v-2c0-0.552,0.448-1,1-1s1,0.448,1,1v2C33,54.552,32.552,55,32,55z"/><path fill="#8d6c9f" d="M36.612,54.673c-0.491,0-0.919-0.361-0.989-0.861l-0.277-1.98 c-0.077-0.547,0.305-1.053,0.852-1.129c0.546-0.084,1.052,0.304,1.129,0.852l0.277,1.98c0.077,0.547-0.305,1.053-0.852,1.129 C36.705,54.67,36.659,54.673,36.612,54.673z"/></g><g><path fill="#8d6c9f" d="M33,9.556h-2c-0.552,0-1-0.448-1-1s0.448-1,1-1h2c0.552,0,1,0.448,1,1S33.552,9.556,33,9.556z"/><path fill="#8d6c9f" d="M33,14h-2c-0.552,0-1-0.448-1-1s0.448-1,1-1h2c0.552,0,1,0.448,1,1S33.552,14,33,14z"/><path fill="#8d6c9f" d="M33,18.444h-2c-0.552,0-1-0.448-1-1s0.448-1,1-1h2c0.552,0,1,0.448,1,1S33.552,18.444,33,18.444z"/></g></svg>